<svg xmlns="http://www.w3.org/2000/svg" viewBox="0 0 64 64" role="img" aria-label="Adisl brand icon">
  <defs>
    <linearGradient id="bg" x1="0%" x2="100%" y1="0%" y2="100%">
      <stop offset="0%" stop-color="#2d7fff"/>
      <stop offset="100%" stop-color="#123d80"/>
    </linearGradient>
  </defs>
  <rect x="4" y="4" width="56" height="56" rx="16" fill="url(#bg)"/>
  <path d="M18 40V22.5c0-1.7 1.3-3 3-3h6.5c2.8 0 5.1 2.3 5.1 5.1v15.4H18zm11.6-10.8c0-1.5-1.2-2.7-2.7-2.7S24.2 27.7 24.2 29.2v8.8h5.4v-8.8zm8.1 10.8V24.5h-5.4v15.5h5.4zM39.5 24.5h5.5v15.5h-5.5z" fill="#fff"/>
  <path d="M16 46h32l-4 6H20l-4-6z" fill="#8ec5ff" opacity="0.9"/>
  <path d="M42 18l7 7-3.6 3.6-7-7 3.6-3.6z" fill="#dfeeff"/>
</svg>
